<svg xmlns="http://www.w3.org/2000/svg" width="20" height="20" viewBox="0 0 20 20">
  <g id="Icon_Bed_Copy" data-name="Icon/Bed Copy" transform="translate(0 0)">
    <path id="Combined_Shape" data-name="Combined Shape" d="M19.677,18.731a2.5,2.5,0,0,0-.032-2.516l-2.654-4.423a5.008,5.008,0,0,0-4.283-2.435,4.946,4.946,0,0,0-1.863.364l-2.128.851-.01,0L7.239,7.637a2.508,2.508,0,0,0-2.088-1.4c-.051,0-.1,0-.156,0A2.5,2.5,0,0,0,2.764,9.868l1.473,2.947a5.022,5.022,0,0,0,6.331,2.4l2.134-.853,2.656,4.423a2.5,2.5,0,0,0,4.319-.055Zm-3.759-6.3,2.654,4.424a1.249,1.249,0,1,1-2.142,1.286l-2.656-4.426a1.251,1.251,0,0,0-1.535-.516l-2.134.853a3.768,3.768,0,0,1-4.752-1.8L3.88,9.3A1.249,1.249,0,0,1,4.992,7.487l.08,0a1.256,1.256,0,0,1,1.047.7L7.593,11.14a1.256,1.256,0,0,0,1.121.681,1.288,1.288,0,0,0,.461-.086l2.137-.856a3.7,3.7,0,0,1,1.4-.272A3.754,3.754,0,0,1,15.918,12.434ZM4.22,5.248a2.812,2.812,0,0,0,0-4.871L4.042.283A2.813,2.813,0,1,0,4.22,5.248ZM3.594,1.459a1.566,1.566,0,1,1-.781-.209A1.568,1.568,0,0,1,3.594,1.459Z" transform="translate(0 0)" fill="#9c8c8c"/>
  </g>
</svg>
